<svg class="diagram-root" style="background: #f5f6f6" xmlns="http://www.w3.org/2000/svg" xmlns:xlink="http://www.w3.org/1999/xlink"><style>.diagram-root { font-family: "Helvetica Neue", sans-serif; font-size: 12px; } .t { overflow: visible; } .t-bg { y: 40; fill: #fff;   } .th { fill: #005aa0;   } .tht { fill: #fff; font-size: 14px;  } .tf { fill: #323c46; overflow: visible; } .tf.pk { fill: #005aa0; font-weight: bold; } .tf.fk { font-weight: bold; } .ty { fill: #adb1b5; font-weight: normal; text-anchor: end; } .r { fill: transparent; stroke: #c3c3c3; stroke-width: 1; } .l { stroke: 1; } .i { fill: #c2c7ce; stroke: #c2c7ce; } .i.ix { fill: #afb3b6; stroke: #000; } .fa { fill: transparent; overflow: visible; } .fa .bg.hover { fill: #f7f7f7; } .c { cy: 12; r: 4; stroke: #d2d2dc; fill: #d2d2dc; } .hr { fill: transparent; stroke: #323c46; stroke-opacity: 0.035; stroke-width: 13; } .dc { stroke: #fa5a3c; fill: #fa5a3c; } .x { stroke: white; stroke-width: 1; } .hl .th { fill: #1b9bff; } .hl .tht {  } .fhl .bg { fill: #e7f4ff; } .fhls .bg {  } .r.hl { stroke: #1b9bff; } .dim { opacity: 0.25; }</style><g class="drawing-wrapper" transform="translate(-34, 21) scale(1,1)"><g class="rs"><path d="M 245 292 m -1, 0 a 1,1 0 1,0 2,0 a 1,1 0 1,0 -2,0 M 245 292 m -0.5, 0 a 0.5,0.5 0 1,0 1,0 a 0.5,0.5 0 1,0 -1,0  M245 292 L245 292 257 292 M 245 298 m -1, 0 a 1,1 0 1,0 2,0 a 1,1 0 1,0 -2,0 M 245 298 m -0.5, 0 a 0.5,0.5 0 1,0 1,0 a 0.5,0.5 0 1,0 -1,0  M245 298 L245 298 252 292 245 286 M 245 286 m -1, 0 a 1,1 0 1,0 2,0 a 1,1 0 1,0 -2,0 M 245 286 m -0.5, 0 a 0.5,0.5 0 1,0 1,0 a 0.5,0.5 0 1,0 -1,0  M257 292 C 481.4 292, 416 514, 366 514 M 354 514 m -1, 0 a 1,1 0 1,0 2,0 a 1,1 0 1,0 -2,0 M 354 514 m -0.5, 0 a 0.5,0.5 0 1,0 1,0 a 0.5,0.5 0 1,0 -1,0  M354 514 L354 514 366 514 M360 520 L360 520 360 508" id="h3743765924" class="r"></path><path d="M 481 66 m -1, 0 a 1,1 0 1,0 2,0 a 1,1 0 1,0 -2,0 M 481 66 m -0.5, 0 a 0.5,0.5 0 1,0 1,0 a 0.5,0.5 0 1,0 -1,0  M481 66 L481 66 493 66 M 481 72 m -1, 0 a 1,1 0 1,0 2,0 a 1,1 0 1,0 -2,0 M 481 72 m -0.5, 0 a 0.5,0.5 0 1,0 1,0 a 0.5,0.5 0 1,0 -1,0  M481 72 L481 72 488 66 481 60 M 481 60 m -1, 0 a 1,1 0 1,0 2,0 a 1,1 0 1,0 -2,0 M 481 60 m -0.5, 0 a 0.5,0.5 0 1,0 1,0 a 0.5,0.5 0 1,0 -1,0  M493 66 Q 536.25 66, 579.5 279 T 666 492 M 678 492 m -1, 0 a 1,1 0 1,0 2,0 a 1,1 0 1,0 -2,0 M 678 492 m -0.5, 0 a 0.5,0.5 0 1,0 1,0 a 0.5,0.5 0 1,0 -1,0  M678 492 L678 492 666 492 M672 498 L672 498 672 486" id="h4278319732" class="r"></path><path d="M 354 514 m -1, 0 a 1,1 0 1,0 2,0 a 1,1 0 1,0 -2,0 M 354 514 m -0.5, 0 a 0.5,0.5 0 1,0 1,0 a 0.5,0.5 0 1,0 -1,0  M354 514 L354 514 366 514 M 354 520 m -1, 0 a 1,1 0 1,0 2,0 a 1,1 0 1,0 -2,0 M 354 520 m -0.5, 0 a 0.5,0.5 0 1,0 1,0 a 0.5,0.5 0 1,0 -1,0  M354 520 L354 520 361 514 354 508 M 354 508 m -1, 0 a 1,1 0 1,0 2,0 a 1,1 0 1,0 -2,0 M 354 508 m -0.5, 0 a 0.5,0.5 0 1,0 1,0 a 0.5,0.5 0 1,0 -1,0  M366 514 Q 428 514, 490 304.5 T 614 95 M 626 95 m -1, 0 a 1,1 0 1,0 2,0 a 1,1 0 1,0 -2,0 M 626 95 m -0.5, 0 a 0.5,0.5 0 1,0 1,0 a 0.5,0.5 0 1,0 -1,0  M626 95 L626 95 614 95 M620 101 L620 101 620 89" id="h702074767" class="r"></path><path d="M 626 70 m -1, 0 a 1,1 0 1,0 2,0 a 1,1 0 1,0 -2,0 M 626 70 m -0.5, 0 a 0.5,0.5 0 1,0 1,0 a 0.5,0.5 0 1,0 -1,0  M626 70 L626 70 614 70 M 626 76 m -1, 0 a 1,1 0 1,0 2,0 a 1,1 0 1,0 -2,0 M 626 76 m -0.5, 0 a 0.5,0.5 0 1,0 1,0 a 0.5,0.5 0 1,0 -1,0  M626 76 L626 76 619 70 626 64 M 626 64 m -1, 0 a 1,1 0 1,0 2,0 a 1,1 0 1,0 -2,0 M 626 64 m -0.5, 0 a 0.5,0.5 0 1,0 1,0 a 0.5,0.5 0 1,0 -1,0  M614 70 Q 583.75 70, 553.5 68 T 493 66 M 481 66 m -1, 0 a 1,1 0 1,0 2,0 a 1,1 0 1,0 -2,0 M 481 66 m -0.5, 0 a 0.5,0.5 0 1,0 1,0 a 0.5,0.5 0 1,0 -1,0  M481 66 L481 66 493 66 M487 72 L487 72 487 60" id="h4291771412" class="r"></path><path d="M 678 492 m -1, 0 a 1,1 0 1,0 2,0 a 1,1 0 1,0 -2,0 M 678 492 m -0.5, 0 a 0.5,0.5 0 1,0 1,0 a 0.5,0.5 0 1,0 -1,0  M678 492 L678 492 666 492 M 678 498 m -1, 0 a 1,1 0 1,0 2,0 a 1,1 0 1,0 -2,0 M 678 498 m -0.5, 0 a 0.5,0.5 0 1,0 1,0 a 0.5,0.5 0 1,0 -1,0  M678 498 L678 498 671 492 678 486 M 678 486 m -1, 0 a 1,1 0 1,0 2,0 a 1,1 0 1,0 -2,0 M 678 486 m -0.5, 0 a 0.5,0.5 0 1,0 1,0 a 0.5,0.5 0 1,0 -1,0  M666 492 Q 591 492, 516 515.5 T 366 539 M 354 539 m -1, 0 a 1,1 0 1,0 2,0 a 1,1 0 1,0 -2,0 M 354 539 m -0.5, 0 a 0.5,0.5 0 1,0 1,0 a 0.5,0.5 0 1,0 -1,0  M354 539 L354 539 366 539 M360 545 L360 545 360 533" id="h2764320716" class="r"></path><path d="M 729 245 m -1, 0 a 1,1 0 1,0 2,0 a 1,1 0 1,0 -2,0 M 729 245 m -0.5, 0 a 0.5,0.5 0 1,0 1,0 a 0.5,0.5 0 1,0 -1,0  M729 245 L729 245 717 245 M 729 251 m -1, 0 a 1,1 0 1,0 2,0 a 1,1 0 1,0 -2,0 M 729 251 m -0.5, 0 a 0.5,0.5 0 1,0 1,0 a 0.5,0.5 0 1,0 -1,0  M729 251 L729 251 722 245 729 239 M 729 239 m -1, 0 a 1,1 0 1,0 2,0 a 1,1 0 1,0 -2,0 M 729 239 m -0.5, 0 a 0.5,0.5 0 1,0 1,0 a 0.5,0.5 0 1,0 -1,0  M717 245 Q 661 245, 605 168 T 493 91 M 481 91 m -1, 0 a 1,1 0 1,0 2,0 a 1,1 0 1,0 -2,0 M 481 91 m -0.5, 0 a 0.5,0.5 0 1,0 1,0 a 0.5,0.5 0 1,0 -1,0  M481 91 L481 91 493 91 M487 97 L487 97 487 85" id="h3188090624" class="r"></path></g><g class="hrs"></g><g class="ts"><svg width="189" height="100" x="56" y="235" id="h3708248841" class="t"><rect height="40" width="189" class="th"></rect><text x="13" y="25" class="tht">Departments</text><rect height="60" width="189" class="t-bg" y="40"></rect><text x="13" y="61" class="tf pk">dept_no<tspan x="176" class="ty">VARCHAR(30)</tspan></text><path d="M7,14A2,2 0 0,1 5,12A2,2 0 0,1 7,10A2,2 0 0,1 9,12A2,2 0 0,1 7,14M12.65,10C11.83,7.67 9.61,6 7, 6A6, 6 0 0, 0 1, 12A6, 6 0 0, 0 7, 18C9.61, 18 11.83, 16.33 12.65, 14H17V18H21V14H23V10H12.65Z" class="i pk" transform="translate(78, 48) scale(0.65)"></path><text x="13" y="86" class="tf">dept_name<tspan x="176" class="ty">VARCHAR(10)</tspan></text></svg><svg width="192" height="225" x="289" y="9" id="h3963420778" class="t"><rect height="40" width="192" class="th"></rect><text x="13" y="25" class="tht">Employers</text><rect height="185" width="192" class="t-bg" y="40"></rect><text x="13" y="61" class="tf pk">emp_no<tspan x="179" class="ty">int</tspan></text><path d="M7,14A2,2 0 0,1 5,12A2,2 0 0,1 7,10A2,2 0 0,1 9,12A2,2 0 0,1 7,14M12.65,10C11.83,7.67 9.61,6 7, 6A6, 6 0 0, 0 1, 12A6, 6 0 0, 0 7, 18C9.61, 18 11.83, 16.33 12.65, 14H17V18H21V14H23V10H12.65Z" class="i pk" transform="translate(146, 48) scale(0.65)"></path><text x="13" y="86" class="tf fk">emp_title_id<tspan x="179" class="ty">VARCHAR(10)</tspan></text><text x="13" y="111" class="tf">birth_date<tspan x="179" class="ty">VARCHAR(8)</tspan></text><text x="13" y="136" class="tf">first_name<tspan x="179" class="ty">VARCHAR(20)</tspan></text><text x="13" y="161" class="tf">last_name<tspan x="179" class="ty">VARCHAR(20)</tspan></text><text x="13" y="186" class="tf">sex<tspan x="179" class="ty">VARCHAR(1)</tspan></text><text x="13" y="211" class="tf">hire_date<tspan x="179" class="ty">VARCHAR(8)</tspan></text></svg><svg width="169" height="100" x="185" y="457" id="h2403958395" class="t"><rect height="40" width="169" class="th"></rect><text x="13" y="25" class="tht">Dept_manager</text><rect height="60" width="169" class="t-bg" y="40"></rect><text x="13" y="61" class="tf fk">dept_no<tspan x="156" class="ty">VARCHAR(30)</tspan></text><text x="13" y="86" class="tf fk">emp_no<tspan x="156" class="ty">INTEGER</tspan></text></svg><svg width="169" height="100" x="626" y="13" id="h4086156755" class="t"><rect height="40" width="169" class="th"></rect><text x="13" y="25" class="tht">Dept_emp</text><rect height="60" width="169" class="t-bg" y="40"></rect><text x="13" y="61" class="tf fk">emp_no<tspan x="156" class="ty">INTEGER</tspan></text><text x="13" y="86" class="tf fk">dept_no<tspan x="156" class="ty">VARCHAR(10)</tspan></text></svg><svg width="145" height="100" x="678" y="435" id="h3858243705" class="t"><rect height="40" width="145" class="th"></rect><text x="13" y="25" class="tht">Salaries</text><rect height="60" width="145" class="t-bg" y="40"></rect><text x="13" y="61" class="tf fk">emp_no<tspan x="132" class="ty">INTEGER</tspan></text><text x="13" y="86" class="tf">salary<tspan x="132" class="ty">INTEGER</tspan></text></svg><svg width="180" height="100" x="729" y="188" id="h3517680912" class="t"><rect height="40" width="180" class="th"></rect><text x="13" y="25" class="tht">Titles</text><rect height="60" width="180" class="t-bg" y="40"></rect><text x="13" y="61" class="tf pk">title_id<tspan x="167" class="ty">VARCHAR(10)</tspan></text><path d="M7,14A2,2 0 0,1 5,12A2,2 0 0,1 7,10A2,2 0 0,1 9,12A2,2 0 0,1 7,14M12.65,10C11.83,7.67 9.61,6 7, 6A6, 6 0 0, 0 1, 12A6, 6 0 0, 0 7, 18C9.61, 18 11.83, 16.33 12.65, 14H17V18H21V14H23V10H12.65Z" class="i pk" transform="translate(69, 48) scale(0.65)"></path><text x="13" y="86" class="tf">title<tspan x="167" class="ty">VARCHAR(30)</tspan></text></svg></g></g><text class="qdbd-link" x="10" y="20">www.quickdatabasediagrams.com</text></svg>